<svg width="45px" height="45px" viewBox="0 0 45 45" version="1.1" xmlns="http://www.w3.org/2000/svg" xmlns:xlink="http://www.w3.org/1999/xlink">
    <g id="404" stroke="none" stroke-width="1" fill="none" fill-rule="evenodd">
        <g transform="translate(0.7111, 12.28)" fill="#CE5C5C" fill-rule="nonzero">
            <polygon id="Path" points="8.904 20.72 8.904 16.968 -3.55271368e-15 16.968 -3.55271368e-15 11.116 7.616 0.28 12.236 0.28 3.92 12.292 3.92 13.328 8.904 13.328 8.904 8.96 13.104 8.96 13.104 20.72"></polygon>
            <path d="M22.1072482,21 C20.7445815,21 19.5592482,20.7433333 18.5512482,20.23 C17.5432482,19.7166667 16.7639148,18.998 16.2132482,18.074 C15.6625815,17.15 15.3872482,16.072 15.3872482,14.84 L15.3872482,6.16 C15.3872482,4.928 15.6625815,3.85 16.2132482,2.926 C16.7639148,2.002 17.5432482,1.28333333 18.5512482,0.77 C19.5592482,0.256666667 20.7445815,0 22.1072482,0 C23.4885815,0 24.6785815,0.256666667 25.6772482,0.77 C26.6759148,1.28333333 27.4505815,2.002 28.0012482,2.926 C28.5519148,3.85 28.8272482,4.928 28.8272482,6.16 L28.8272482,14.84 C28.8272482,16.072 28.5519148,17.15 28.0012482,18.074 C27.4505815,18.998 26.6759148,19.7166667 25.6772482,20.23 C24.6785815,20.7433333 23.4885815,21 22.1072482,21 Z M22.1072482,17.36 C22.9845815,17.36 23.6705815,17.136 24.1652482,16.688 C24.6599148,16.24 24.9072482,15.624 24.9072482,14.84 L24.9072482,6.16 C24.9072482,5.376 24.6599148,4.76 24.1652482,4.312 C23.6705815,3.864 22.9845815,3.64 22.1072482,3.64 C21.2299148,3.64 20.5439148,3.864 20.0492482,4.312 C19.5545815,4.76 19.3072482,5.376 19.3072482,6.16 L19.3072482,14.84 C19.3072482,15.624 19.5592482,16.24 20.0632482,16.688 C20.5672482,17.136 21.2485815,17.36 22.1072482,17.36 Z M22.1072482,12.292 C21.5285815,12.292 21.0572482,12.1286667 20.6932482,11.802 C20.3292482,11.4753333 20.1472482,11.0133333 20.1472482,10.416 C20.1472482,9.81866667 20.3292482,9.366 20.6932482,9.058 C21.0572482,8.75 21.5285815,8.596 22.1072482,8.596 C22.7045815,8.596 23.1805815,8.75 23.5352482,9.058 C23.8899148,9.366 24.0672482,9.81866667 24.0672482,10.416 C24.0672482,11.0133333 23.8899148,11.4753333 23.5352482,11.802 C23.1805815,12.1286667 22.7045815,12.292 22.1072482,12.292 Z" id="Shape"></path>
            <polygon id="Path" points="39.2304963 20.72 39.2304963 16.968 30.3264963 16.968 30.3264963 11.116 37.9424963 0.28 42.5624963 0.28 34.2464963 12.292 34.2464963 13.328 39.2304963 13.328 39.2304963 8.96 43.4304963 8.96 43.4304963 20.72"></polygon>
        </g>
    </g>
</svg>