<svg width="33px" height="32px" viewBox="0 0 33 32" version="1.1" xmlns="http://www.w3.org/2000/svg" xmlns:xlink="http://www.w3.org/1999/xlink" fill="#F8F8F8"><path d="M16,0 C24.8400022,0 32,7.16 32,16 C31.9982449,22.8740083 27.6128946,28.9813126 21.1000022,31.18 C20.3000022,31.34 20,30.84 20,30.42 C20,29.88 20.0200022,28.16 20.0200022,26.02 C20.0200022,24.52 19.5200022,23.56 18.9400022,23.06 C22.5,22.66 26.2400022,21.3 26.2400022,15.16 C26.2400022,13.4 25.6200022,11.98 24.6000022,10.86 C24.7600022,10.46 25.3200022,8.82 24.4400022,6.62 C24.4400022,6.62 23.1000022,6.18 20.0400022,8.26 C18.7600022,7.9 17.4000022,7.72 16.0400022,7.72 C14.6800022,7.72 13.3200022,7.9 12.0400022,8.26 C8.98000222,6.2 7.64000222,6.62 7.64000222,6.62 C6.76000222,8.82 7.32000222,10.46 7.48000222,10.86 C6.46000222,11.98 5.84000222,13.42 5.84000222,15.16 C5.84000222,21.28 9.56000222,22.66 13.1200022,23.06 C12.6600022,23.46 12.2400022,24.16 12.1000022,25.2 C11.1800022,25.62 8.88000222,26.3 7.44000222,23.88 C7.14000222,23.4 6.24000222,22.22 4.98000222,22.24 C3.64000222,22.26 4.44000222,23 5,23.3 C5.68000222,23.68 6.46000222,25.1 6.64000222,25.56 C6.96000222,26.46 8,28.18 12.0200022,27.44 C12.0200022,28.78 12.0400022,30.04 12.0400022,30.42 C12.0400022,30.84 11.7400022,31.32 10.9400022,31.18 C4.40436299,29.004557 -0.00361384277,22.8881869 1.66050221e-16,16 C1.66050221e-16,7.16 7.16000222,0 16,0 L16,0 Z" id="Path"></path></svg>